<?xml version="1.0" encoding="UTF-8" standalone="no"?>
<!DOCTYPE svg PUBLIC "-//W3C//DTD SVG 1.1//EN"
 "http://www.w3.org/Graphics/SVG/1.1/DTD/svg11.dtd">
<!-- Generated by graphviz version 2.38.0 (20140413.2041)
 -->
<!-- Title: services Pages: 1 -->
<svg width="809pt" height="423pt"
 viewBox="0.00 0.00 809.49 423.00" xmlns="http://www.w3.org/2000/svg" xmlns:xlink="http://www.w3.org/1999/xlink">
<g id="graph0" class="graph" transform="scale(1 1) rotate(0) translate(4 419)">
<title>services</title>
<polygon fill="white" stroke="none" points="-4,4 -4,-419 805.488,-419 805.488,4 -4,4"/>
<g id="clust1" class="cluster"><title>cluster_bank_common</title>
<polygon fill="none" stroke="black" points="507.488,-194 507.488,-323 659.488,-323 659.488,-194 507.488,-194"/>
<text text-anchor="middle" x="583.488" y="-307.8" font-family="Times,serif" font-size="14.00">Bank common</text>
</g>
<g id="clust2" class="cluster"><title>cluster_bank_a</title>
<polygon fill="none" stroke="black" points="8,-111 8,-240 487.488,-240 487.488,-111 8,-111"/>
<text text-anchor="middle" x="247.744" y="-224.8" font-family="Times,serif" font-size="14.00">Bank A</text>
</g>
<g id="clust3" class="cluster"><title>cluster_bank_b</title>
<polygon fill="none" stroke="black" points="10.5998,-278 10.5998,-407 486.988,-407 486.988,-278 10.5998,-278"/>
<text text-anchor="middle" x="248.794" y="-391.8" font-family="Times,serif" font-size="14.00">Bank B</text>
</g>
<g id="clust4" class="cluster"><title>cluster_core</title>
<polygon fill="none" stroke="black" points="356.192,-8 356.192,-103 793.488,-103 793.488,-8 356.192,-8"/>
<text text-anchor="middle" x="574.84" y="-87.8" font-family="Times,serif" font-size="14.00">Enki</text>
</g>
<!-- consus_keyserver -->
<g id="node1" class="node"><title>consus_keyserver</title>
<polygon fill="none" stroke="black" points="641.488,-292 525.488,-292 525.488,-256 641.488,-256 641.488,-292"/>
<text text-anchor="middle" x="583.488" y="-270.3" font-family="Times,serif" font-size="14.00">Consus Keyserver</text>
</g>
<!-- consus_upspinserver -->
<g id="node2" class="node"><title>consus_upspinserver</title>
<polygon fill="none" stroke="black" points="651.488,-238 515.488,-238 515.488,-202 651.488,-202 651.488,-238"/>
<text text-anchor="middle" x="583.488" y="-216.3" font-family="Times,serif" font-size="14.00">Consus Upspin server</text>
</g>
<!-- pg_bank_a -->
<g id="node3" class="node"><title>pg_bank_a</title>
<polygon fill="none" stroke="black" points="303.988,-155 190.988,-155 190.988,-119 303.988,-119 303.988,-155"/>
<text text-anchor="middle" x="247.488" y="-133.3" font-family="Times,serif" font-size="14.00">Postgres(Bank A)</text>
</g>
<!-- hydra_bank_a -->
<g id="node4" class="node"><title>hydra_bank_a</title>
<ellipse fill="none" stroke="black" cx="84.2439" cy="-191" rx="68.4888" ry="18"/>
<text text-anchor="middle" x="84.2439" y="-187.3" font-family="Times,serif" font-size="14.00">Hydra (Bank A)</text>
</g>
<!-- hydra_bank_a&#45;&gt;pg_bank_a -->
<g id="edge1" class="edge"><title>hydra_bank_a&#45;&gt;pg_bank_a</title>
<path fill="none" stroke="black" d="M127.188,-176.953C144.193,-171.258 164.206,-164.556 182.932,-158.285"/>
<polygon fill="black" stroke="black" points="184.213,-161.547 192.584,-155.052 181.99,-154.909 184.213,-161.547"/>
</g>
<!-- bank_ui_bank_a -->
<g id="node5" class="node"><title>bank_ui_bank_a</title>
<polygon fill="none" stroke="black" points="306.488,-209 188.488,-209 188.488,-173 306.488,-173 306.488,-209"/>
<text text-anchor="middle" x="247.488" y="-187.3" font-family="Times,serif" font-size="14.00">Bank UI (Bank A)</text>
</g>
<!-- hydra_bank_a&#45;&gt;bank_ui_bank_a -->
<g id="edge3" class="edge"><title>hydra_bank_a&#45;&gt;bank_ui_bank_a</title>
<path fill="none" stroke="black" stroke-dasharray="1,5" d="M133.622,-178.509C147.641,-177.584 163.218,-177.295 178.211,-177.642"/>
<polygon fill="black" stroke="black" points="178.36,-181.148 188.471,-177.983 178.593,-174.152 178.36,-181.148"/>
</g>
<!-- bank_ui_bank_a&#45;&gt;hydra_bank_a -->
<g id="edge2" class="edge"><title>bank_ui_bank_a&#45;&gt;hydra_bank_a</title>
<path fill="none" stroke="black" stroke-dasharray="1,5" d="M188.272,-191C179.973,-191 171.331,-191 162.736,-191"/>
<polygon fill="black" stroke="black" points="162.692,-187.5 152.692,-191 162.692,-194.5 162.692,-187.5"/>
</g>
<!-- bank_ui_bank_a&#45;&gt;hydra_bank_a -->
<g id="edge4" class="edge"><title>bank_ui_bank_a&#45;&gt;hydra_bank_a</title>
<path fill="none" stroke="black" d="M188.471,-204.017C174.002,-204.651 158.476,-204.661 143.973,-204.047"/>
<polygon fill="black" stroke="black" points="143.796,-200.533 133.622,-203.491 143.42,-207.523 143.796,-200.533"/>
</g>
<!-- bank_agent_a -->
<g id="node6" class="node"><title>bank_agent_a</title>
<polygon fill="none" stroke="black" points="479.488,-209 342.488,-209 342.488,-173 479.488,-173 479.488,-209"/>
<text text-anchor="middle" x="410.988" y="-187.3" font-family="Times,serif" font-size="14.00">Bank Agent (Bank A)</text>
</g>
<!-- bank_ui_bank_a&#45;&gt;bank_agent_a -->
<g id="edge5" class="edge"><title>bank_ui_bank_a&#45;&gt;bank_agent_a</title>
<path fill="none" stroke="black" d="M306.793,-191C315.105,-191 323.762,-191 332.372,-191"/>
<polygon fill="black" stroke="black" points="332.433,-194.5 342.433,-191 332.433,-187.5 332.433,-194.5"/>
</g>
<!-- enki_core -->
<g id="node11" class="node"><title>enki_core</title>
<ellipse fill="none" stroke="black" cx="410.988" cy="-54" rx="46.5926" ry="18"/>
<text text-anchor="middle" x="410.988" y="-50.3" font-family="Times,serif" font-size="14.00">Enki Core</text>
</g>
<!-- bank_ui_bank_a&#45;&gt;enki_core -->
<g id="edge6" class="edge"><title>bank_ui_bank_a&#45;&gt;enki_core</title>
<path fill="none" stroke="black" stroke-dasharray="1,5" d="M294.094,-172.938C298.51,-170.277 302.735,-167.302 306.488,-164 328.983,-144.207 322.412,-129.243 342.488,-107 352.931,-95.4296 366.11,-84.4654 378.046,-75.5439"/>
<polygon fill="black" stroke="black" points="380.428,-78.1394 386.46,-69.4293 376.313,-72.4766 380.428,-78.1394"/>
</g>
<!-- bank_agent_a&#45;&gt;consus_keyserver -->
<g id="edge9" class="edge"><title>bank_agent_a&#45;&gt;consus_keyserver</title>
<path fill="none" stroke="black" d="M439.663,-209.071C458.342,-220.803 483.816,-235.915 507.488,-247 511.224,-248.75 515.107,-250.458 519.053,-252.111"/>
<polygon fill="black" stroke="black" points="517.748,-255.359 528.331,-255.86 520.371,-248.868 517.748,-255.359"/>
</g>
<!-- bank_agent_a&#45;&gt;consus_upspinserver -->
<g id="edge10" class="edge"><title>bank_agent_a&#45;&gt;consus_upspinserver</title>
<path fill="none" stroke="black" d="M479.864,-202.545C488.274,-203.975 496.92,-205.446 505.455,-206.898"/>
<polygon fill="black" stroke="black" points="504.957,-210.363 515.402,-208.589 506.13,-203.462 504.957,-210.363"/>
</g>
<!-- bank_agent_a&#45;&gt;enki_core -->
<g id="edge7" class="edge"><title>bank_agent_a&#45;&gt;enki_core</title>
<path fill="none" stroke="black" d="M410.988,-172.901C410.988,-142.742 410.988,-112.582 410.988,-82.4232"/>
<polygon fill="black" stroke="black" points="414.488,-82.1953 410.988,-72.1953 407.488,-82.1953 414.488,-82.1953"/>
</g>
<!-- pg_bank_b -->
<g id="node7" class="node"><title>pg_bank_b</title>
<polygon fill="none" stroke="black" points="303.988,-322 190.988,-322 190.988,-286 303.988,-286 303.988,-322"/>
<text text-anchor="middle" x="247.488" y="-300.3" font-family="Times,serif" font-size="14.00">Postgres(Bank B)</text>
</g>
<!-- hydra_bank_b -->
<g id="node8" class="node"><title>hydra_bank_b</title>
<ellipse fill="none" stroke="black" cx="84.2439" cy="-358" rx="65.7887" ry="18"/>
<text text-anchor="middle" x="84.2439" y="-354.3" font-family="Times,serif" font-size="14.00">hydra (Bank B)</text>
</g>
<!-- hydra_bank_b&#45;&gt;pg_bank_b -->
<g id="edge12" class="edge"><title>hydra_bank_b&#45;&gt;pg_bank_b</title>
<path fill="none" stroke="black" d="M126.768,-344.094C143.852,-338.372 164.027,-331.616 182.897,-325.296"/>
<polygon fill="black" stroke="black" points="184.252,-328.534 192.623,-322.039 182.029,-321.896 184.252,-328.534"/>
</g>
<!-- bank_ui_bank_b -->
<g id="node9" class="node"><title>bank_ui_bank_b</title>
<polygon fill="none" stroke="black" points="305.988,-376 188.988,-376 188.988,-340 305.988,-340 305.988,-376"/>
<text text-anchor="middle" x="247.488" y="-354.3" font-family="Times,serif" font-size="14.00">Bank UI (Bank B)</text>
</g>
<!-- hydra_bank_b&#45;&gt;bank_ui_bank_b -->
<g id="edge14" class="edge"><title>hydra_bank_b&#45;&gt;bank_ui_bank_b</title>
<path fill="none" stroke="black" stroke-dasharray="1,5" d="M132.316,-345.598C146.804,-344.594 163.051,-344.278 178.644,-344.652"/>
<polygon fill="black" stroke="black" points="178.658,-348.154 188.771,-344.996 178.896,-341.158 178.658,-348.154"/>
</g>
<!-- bank_ui_bank_b&#45;&gt;hydra_bank_b -->
<g id="edge13" class="edge"><title>bank_ui_bank_b&#45;&gt;hydra_bank_b</title>
<path fill="none" stroke="black" stroke-dasharray="1,5" d="M188.85,-358C179.479,-358 169.657,-358 159.95,-358"/>
<polygon fill="black" stroke="black" points="159.899,-354.5 149.899,-358 159.899,-361.5 159.899,-354.5"/>
</g>
<!-- bank_ui_bank_b&#45;&gt;hydra_bank_b -->
<g id="edge15" class="edge"><title>bank_ui_bank_b&#45;&gt;hydra_bank_b</title>
<path fill="none" stroke="black" d="M188.771,-371.004C173.726,-371.672 157.519,-371.665 142.497,-370.983"/>
<polygon fill="black" stroke="black" points="142.499,-367.477 132.316,-370.402 142.1,-374.466 142.499,-367.477"/>
</g>
<!-- bank_agent_b -->
<g id="node10" class="node"><title>bank_agent_b</title>
<polygon fill="none" stroke="black" points="478.988,-322 342.988,-322 342.988,-286 478.988,-286 478.988,-322"/>
<text text-anchor="middle" x="410.988" y="-300.3" font-family="Times,serif" font-size="14.00">Bank Agent (Bank B)</text>
</g>
<!-- bank_ui_bank_b&#45;&gt;bank_agent_b -->
<g id="edge16" class="edge"><title>bank_ui_bank_b&#45;&gt;bank_agent_b</title>
<path fill="none" stroke="black" d="M302.714,-339.869C316.637,-335.213 331.744,-330.162 346.105,-325.36"/>
<polygon fill="black" stroke="black" points="347.531,-328.574 355.905,-322.084 345.311,-321.935 347.531,-328.574"/>
</g>
<!-- bank_ui_bank_b&#45;&gt;enki_core -->
<g id="edge17" class="edge"><title>bank_ui_bank_b&#45;&gt;enki_core</title>
<path fill="none" stroke="black" stroke-dasharray="1,5" d="M297.497,-339.933C300.876,-337.329 303.943,-334.367 306.488,-331 367.288,-250.56 291.318,-193.884 342.488,-107 350.154,-93.9831 362.336,-82.9634 374.254,-74.4008"/>
<polygon fill="black" stroke="black" points="376.496,-77.1095 382.817,-68.6067 372.574,-71.3119 376.496,-77.1095"/>
</g>
<!-- bank_agent_b&#45;&gt;consus_keyserver -->
<g id="edge20" class="edge"><title>bank_agent_b&#45;&gt;consus_keyserver</title>
<path fill="none" stroke="black" d="M479.374,-292.143C491.109,-290.078 503.316,-287.93 515.053,-285.865"/>
<polygon fill="black" stroke="black" points="515.979,-289.256 525.221,-284.076 514.766,-282.362 515.979,-289.256"/>
</g>
<!-- bank_agent_b&#45;&gt;consus_upspinserver -->
<g id="edge21" class="edge"><title>bank_agent_b&#45;&gt;consus_upspinserver</title>
<path fill="none" stroke="black" d="M439.209,-285.833C457.906,-273.84 483.575,-258.311 507.488,-247 511.217,-245.236 515.095,-243.516 519.037,-241.855"/>
<polygon fill="black" stroke="black" points="520.359,-245.096 528.308,-238.091 517.726,-238.61 520.359,-245.096"/>
</g>
<!-- bank_agent_b&#45;&gt;enki_core -->
<g id="edge18" class="edge"><title>bank_agent_b&#45;&gt;enki_core</title>
<path fill="none" stroke="black" d="M375.293,-285.84C356.443,-274.135 335.072,-256.981 324.488,-235 301.543,-187.347 300.325,-163.047 324.488,-116 334.264,-96.9655 352.898,-82.4642 370.374,-72.2902"/>
<polygon fill="black" stroke="black" points="372.271,-75.2418 379.355,-67.3632 368.904,-69.1047 372.271,-75.2418"/>
</g>
<!-- enki_core&#45;&gt;hydra_bank_a -->
<g id="edge11" class="edge"><title>enki_core&#45;&gt;hydra_bank_a</title>
<path fill="none" stroke="black" stroke-dasharray="1,5" d="M366.083,-59.5848C319.999,-66.6841 246.345,-81.5909 188.488,-110 158.88,-124.538 129.739,-148.54 110.007,-166.651"/>
<polygon fill="black" stroke="black" points="107.58,-164.129 102.668,-173.516 112.362,-169.241 107.58,-164.129"/>
</g>
<!-- enki_core&#45;&gt;bank_agent_a -->
<g id="edge8" class="edge"><title>enki_core&#45;&gt;bank_agent_a</title>
<path fill="none" stroke="black" d="M410.988,-72.1953C410.988,-102.355 410.988,-132.514 410.988,-162.673"/>
<polygon fill="black" stroke="black" points="407.488,-162.901 410.988,-172.901 414.488,-162.901 407.488,-162.901"/>
</g>
<!-- enki_core&#45;&gt;hydra_bank_b -->
<g id="edge22" class="edge"><title>enki_core&#45;&gt;hydra_bank_b</title>
<path fill="none" stroke="black" stroke-dasharray="1,5" d="M383.755,-68.7618C369.568,-78.0158 352.875,-91.1832 342.488,-107 307.931,-159.624 350.653,-199.135 306.488,-244 268.285,-282.808 237.065,-252.387 188.488,-277 159.065,-291.908 129.9,-315.861 110.112,-333.86"/>
<polygon fill="black" stroke="black" points="107.708,-331.316 102.749,-340.678 112.464,-336.452 107.708,-331.316"/>
</g>
<!-- enki_core&#45;&gt;bank_agent_b -->
<g id="edge19" class="edge"><title>enki_core&#45;&gt;bank_agent_b</title>
<path fill="none" stroke="black" d="M379.355,-67.3632C359.663,-77.5465 335.968,-93.6475 324.488,-116 300.325,-163.047 301.543,-187.347 324.488,-235 333.501,-253.718 350.336,-268.936 366.776,-280.27"/>
<polygon fill="black" stroke="black" points="365.009,-283.296 375.293,-285.84 368.84,-277.437 365.009,-283.296"/>
</g>
<!-- hydra_core -->
<g id="node12" class="node"><title>hydra_core</title>
<ellipse fill="none" stroke="black" cx="583.488" cy="-34" rx="55.7903" ry="18"/>
<text text-anchor="middle" x="583.488" y="-30.3" font-family="Times,serif" font-size="14.00">Hydra(Core)</text>
</g>
<!-- enki_core&#45;&gt;hydra_core -->
<g id="edge26" class="edge"><title>enki_core&#45;&gt;hydra_core</title>
<path fill="none" stroke="black" d="M449.827,-43.8413C469.654,-40.5507 494.498,-37.3496 517.308,-35.0648"/>
<polygon fill="black" stroke="black" points="517.656,-38.5476 527.279,-34.1133 516.991,-31.5792 517.656,-38.5476"/>
</g>
<!-- pg_core -->
<g id="node13" class="node"><title>pg_core</title>
<polygon fill="none" stroke="black" points="785.488,-62 687.488,-62 687.488,-26 785.488,-26 785.488,-62"/>
<text text-anchor="middle" x="736.488" y="-40.3" font-family="Times,serif" font-size="14.00">Postgres(Core)</text>
</g>
<!-- enki_core&#45;&gt;pg_core -->
<g id="edge23" class="edge"><title>enki_core&#45;&gt;pg_core</title>
<path fill="none" stroke="black" d="M456.4,-58.9348C506.052,-63.5977 588.776,-68.812 659.488,-61 665.256,-60.3628 671.226,-59.4613 677.169,-58.4022"/>
<polygon fill="black" stroke="black" points="677.945,-61.8171 687.103,-56.4896 676.622,-54.9433 677.945,-61.8171"/>
</g>
<!-- hydra_core&#45;&gt;enki_core -->
<g id="edge25" class="edge"><title>hydra_core&#45;&gt;enki_core</title>
<path fill="none" stroke="black" stroke-dasharray="1,5" d="M539.243,-45.0341C517.659,-48.4479 491.285,-51.6838 468.156,-53.7994"/>
<polygon fill="black" stroke="black" points="467.791,-50.3178 458.128,-54.6619 468.391,-57.2921 467.791,-50.3178"/>
</g>
<!-- hydra_core&#45;&gt;pg_core -->
<g id="edge24" class="edge"><title>hydra_core&#45;&gt;pg_core</title>
<path fill="none" stroke="black" d="M638.576,-37.582C651.129,-38.4133 664.544,-39.3017 677.267,-40.1443"/>
<polygon fill="black" stroke="black" points="677.083,-43.6397 687.292,-40.8082 677.545,-36.655 677.083,-43.6397"/>
</g>
</g>
</svg>
